<?xml version="1.0" encoding="UTF-8"?> <svg xmlns="http://www.w3.org/2000/svg" width="88" height="88" viewBox="0 0 88 88" fill="none"><path d="M22.3569 1.00781C22.3569 1.00781 1.03711 1.00781 1.03711 22.3276V65.1697C1.03711 65.1697 1.03711 86.4896 22.3569 86.4896H65.199C65.199 86.4896 86.5188 86.4896 86.5188 65.1697V22.3276C86.5188 22.3276 86.5189 1.00781 65.199 1.00781H22.3569V1.00781Z" stroke="black" stroke-width="1.44639"></path><path d="M54.0216 23.2969H33.5291C33.5291 23.2969 23.332 23.2969 23.332 33.4939V53.9864C23.332 53.9864 23.332 64.1835 33.5291 64.1835H54.0216C54.0216 64.1835 64.2186 64.1835 64.2186 53.9864V39.2332" stroke="black" stroke-width="1.44639"></path><path d="M32.6465 34.7278L43.7779 45.8592L67.0619 22.5781" stroke="black" stroke-width="2.89278" stroke-linecap="round" stroke-linejoin="round"></path><path d="M22.3198 1C22.3198 1 1 1 1 22.3198V65.1619C1 65.1619 1 86.4817 22.3198 86.4817H65.1619C65.1619 86.4817 86.4817 86.4817 86.4817 65.1619V22.3198C86.4817 22.3198 86.4817 1 65.1619 1H22.3198Z" stroke="black" stroke-width="1.44639"></path></svg> 