<?xml version="1.0" encoding="UTF-8"?> <svg xmlns="http://www.w3.org/2000/svg" width="88" height="88" viewBox="0 0 88 88" fill="none"><path d="M22.3198 1.00781C22.3198 1.00781 1 1.00781 1 22.3276V65.1697C1 65.1697 1 86.4896 22.3198 86.4896H65.1619C65.1619 86.4896 86.4817 86.4896 86.4817 65.1697V22.3276C86.4817 22.3276 86.4817 1.00781 65.1619 1.00781H22.3198V1.00781Z" stroke="black" stroke-width="1.44639"></path><path d="M12.6693 27.1041V28.7963H19.6264V48.3516H21.9956V22.0272H20.0777C19.9022 23.2306 19.6014 24.1708 19.1752 24.8477C18.774 25.4995 18.2601 25.9884 17.6333 26.3143C17.0316 26.6403 16.3045 26.8534 15.4521 26.9536C14.6248 27.0289 13.6972 27.079 12.6693 27.1041ZM40.3724 21.8016C38.467 21.8016 36.9126 22.2278 35.7092 23.0802C34.5058 23.9075 33.5657 24.973 32.8888 26.2767C32.2369 27.5804 31.7857 29.0345 31.535 30.639C31.3093 32.2436 31.1965 33.823 31.1965 35.3774C31.1965 36.9067 31.3093 38.4737 31.535 40.0782C31.7857 41.6827 32.2369 43.1368 32.8888 44.4405C33.5657 45.7442 34.5058 46.8097 35.7092 47.637C36.9126 48.4644 38.467 48.878 40.3724 48.878C42.3029 48.878 43.8573 48.4644 45.0356 47.637C46.239 46.8097 47.1666 45.7442 47.8184 44.4405C48.4953 43.1368 48.9466 41.6827 49.1723 40.0782C49.423 38.4737 49.5483 36.8942 49.5483 35.3398C49.5483 33.8105 49.423 32.2436 49.1723 30.639C48.9466 29.0345 48.4953 27.5804 47.8184 26.2767C47.1666 24.973 46.239 23.9075 45.0356 23.0802C43.8573 22.2278 42.3029 21.8016 40.3724 21.8016ZM40.3724 23.7947C41.8767 23.7947 43.0801 24.1833 43.9826 24.9605C44.8852 25.7377 45.5621 26.7029 46.0133 27.8562C46.4897 29.0094 46.8031 30.263 46.9535 31.6168C47.1039 32.9706 47.1791 34.2116 47.1791 35.3398C47.1791 36.4931 47.1039 37.7466 46.9535 39.1004C46.8031 40.4292 46.4897 41.6827 46.0133 42.8611C45.5621 44.0143 44.8852 44.9795 43.9826 45.7567C43.0801 46.5339 41.8767 46.9225 40.3724 46.9225C38.8682 46.9225 37.6648 46.5339 36.7622 45.7567C35.8597 44.9795 35.1702 44.0143 34.6939 42.8611C34.2426 41.6827 33.9418 40.4292 33.7913 39.1004C33.6409 37.7466 33.5657 36.4931 33.5657 35.3398C33.5657 34.2116 33.6409 32.9706 33.7913 31.6168C33.9418 30.263 34.2426 29.0094 34.6939 27.8562C35.1702 26.7029 35.8597 25.7377 36.7622 24.9605C37.6648 24.1833 38.8682 23.7947 40.3724 23.7947ZM61.2688 21.8016C59.3634 21.8016 57.809 22.2278 56.6056 23.0802C55.4023 23.9075 54.4621 24.973 53.7852 26.2767C53.1333 27.5804 52.6821 29.0345 52.4314 30.639C52.2057 32.2436 52.0929 33.823 52.0929 35.3774C52.0929 36.9067 52.2057 38.4737 52.4314 40.0782C52.6821 41.6827 53.1333 43.1368 53.7852 44.4405C54.4621 45.7442 55.4023 46.8097 56.6056 47.637C57.809 48.4644 59.3634 48.878 61.2688 48.878C63.1993 48.878 64.7537 48.4644 65.932 47.637C67.1354 46.8097 68.063 45.7442 68.7148 44.4405C69.3918 43.1368 69.843 41.6827 70.0687 40.0782C70.3194 38.4737 70.4447 36.8942 70.4447 35.3398C70.4447 33.8105 70.3194 32.2436 70.0687 30.639C69.843 29.0345 69.3918 27.5804 68.7148 26.2767C68.063 24.973 67.1354 23.9075 65.932 23.0802C64.7537 22.2278 63.1993 21.8016 61.2688 21.8016ZM61.2688 23.7947C62.7731 23.7947 63.9765 24.1833 64.879 24.9605C65.7816 25.7377 66.4585 26.7029 66.9097 27.8562C67.3861 29.0094 67.6995 30.263 67.8499 31.6168C68.0003 32.9706 68.0755 34.2116 68.0755 35.3398C68.0755 36.4931 68.0003 37.7466 67.8499 39.1004C67.6995 40.4292 67.3861 41.6827 66.9097 42.8611C66.4585 44.0143 65.7816 44.9795 64.879 45.7567C63.9765 46.5339 62.7731 46.9225 61.2688 46.9225C59.7646 46.9225 58.5612 46.5339 57.6586 45.7567C56.7561 44.9795 56.0666 44.0143 55.5903 42.8611C55.139 41.6827 54.8382 40.4292 54.6877 39.1004C54.5373 37.7466 54.4621 36.4931 54.4621 35.3398C54.4621 34.2116 54.5373 32.9706 54.6877 31.6168C54.8382 30.263 55.139 29.0094 55.5903 27.8562C56.0666 26.7029 56.7561 25.7377 57.6586 24.9605C58.5612 24.1833 59.7646 23.7947 61.2688 23.7947Z" fill="black"></path><path d="M14.4156 58.8612V54.7968H18.0894C18.8415 54.7968 19.4008 54.98 19.7672 55.3465C20.1336 55.7129 20.3169 56.2143 20.3169 56.8507C20.3169 57.1689 20.2542 57.4534 20.1288 57.7041C20.0131 57.9451 19.854 58.1525 19.6515 58.326C19.449 58.4996 19.2128 58.6346 18.9428 58.731C18.6728 58.8178 18.3883 58.8612 18.0894 58.8612H14.4156ZM13.432 53.9579V64.2852H14.4156V59.7001H18.1473C18.6101 59.6808 18.9717 59.7579 19.2321 59.9315C19.5021 60.1051 19.7045 60.3365 19.8395 60.6258C19.9842 60.9054 20.0758 61.2284 20.1144 61.5949C20.1626 61.9516 20.1963 62.3132 20.2156 62.6797C20.2252 62.7857 20.2349 62.9111 20.2445 63.0557C20.2542 63.2004 20.2638 63.3498 20.2735 63.5041C20.2927 63.6487 20.3169 63.7934 20.3458 63.938C20.3844 64.073 20.4326 64.1887 20.4904 64.2852H21.5752C21.4691 64.1598 21.3824 63.9862 21.3149 63.7645C21.257 63.533 21.2136 63.292 21.1847 63.0413C21.1558 62.7809 21.1365 62.5254 21.1268 62.2747C21.1172 62.024 21.1075 61.8118 21.0979 61.6383C21.0786 61.3297 21.0352 61.0452 20.9677 60.7849C20.9099 60.5149 20.8086 60.2787 20.664 60.0762C20.529 59.8737 20.3506 59.7097 20.1288 59.5844C19.907 59.4494 19.6274 59.3578 19.2899 59.3096V59.2806C19.9553 59.1456 20.4567 58.8371 20.7942 58.3549C21.1317 57.8728 21.3004 57.3039 21.3004 56.6482C21.3004 56.1854 21.2136 55.7852 21.04 55.4477C20.8761 55.1006 20.6495 54.8209 20.3602 54.6088C20.0806 54.387 19.7479 54.2231 19.3622 54.117C18.9862 54.011 18.586 53.9579 18.1617 53.9579H13.432ZM24.5402 60.2353L26.6085 54.9415L28.6046 60.2353H24.5402ZM26.1023 53.9579L21.9512 64.2852H22.9926L24.2365 61.0742H28.9372L30.1956 64.2852H31.2515L27.2016 53.9579H26.1023ZM32.1899 53.9579V64.2852H38.959V63.4462H33.1735V53.9579H32.1899ZM38.7437 64.4877H39.5102L43.9217 53.741H43.1841L38.7437 64.4877ZM44.7608 53.9579V64.2852H45.7443V55.5489H45.7732L51.7902 64.2852H52.8895V53.9579H51.9059V62.6941H51.877L45.86 53.9579H44.7608ZM62.5095 57.0821H63.493C63.4255 56.5421 63.2616 56.0648 63.0012 55.6502C62.7505 55.2356 62.4323 54.8884 62.0466 54.6088C61.6706 54.3195 61.2463 54.1026 60.7738 53.9579C60.3109 53.8133 59.8336 53.741 59.3419 53.741C58.5319 53.741 57.8183 53.8904 57.2012 54.1893C56.5937 54.4786 56.0875 54.874 55.6825 55.3754C55.2775 55.8672 54.9738 56.4361 54.7713 57.0821C54.5688 57.7282 54.4675 58.408 54.4675 59.1215C54.4675 59.8351 54.5688 60.5149 54.7713 61.1609C54.9738 61.807 55.2775 62.3759 55.6825 62.8677C56.0875 63.3595 56.5937 63.7548 57.2012 64.0537C57.8183 64.343 58.5319 64.4877 59.3419 64.4877C59.9493 64.4877 60.499 64.3912 60.9907 64.1984C61.4922 64.0055 61.9261 63.7307 62.2925 63.3739C62.6589 63.0172 62.9578 62.5832 63.1893 62.0722C63.4207 61.5611 63.5701 60.9874 63.6376 60.351H62.6541C62.6059 60.8138 62.495 61.2477 62.3214 61.6527C62.1479 62.0481 61.9213 62.3952 61.6416 62.6941C61.362 62.993 61.0293 63.2293 60.6436 63.4029C60.2579 63.5764 59.824 63.6632 59.3419 63.6632C58.6572 63.6632 58.069 63.533 57.5773 63.2727C57.0855 63.0123 56.6805 62.67 56.3623 62.2457C56.0537 61.8118 55.8223 61.3249 55.668 60.7849C55.5234 60.2353 55.4511 59.6808 55.4511 59.1215C55.4511 58.5526 55.5234 57.9982 55.668 57.4582C55.8223 56.9182 56.0537 56.4361 56.3623 56.0118C56.6805 55.5779 57.0855 55.2307 57.5773 54.9704C58.069 54.71 58.6572 54.5799 59.3419 54.5799C59.7179 54.5799 60.0747 54.6377 60.4122 54.7534C60.7593 54.8595 61.0727 55.0186 61.3523 55.2307C61.6416 55.4429 61.8827 55.7081 62.0755 56.0263C62.278 56.3348 62.4227 56.6868 62.5095 57.0821ZM65.6062 60.8861H64.6227C64.5937 61.5225 64.6757 62.0674 64.8685 62.5206C65.071 62.9738 65.3555 63.345 65.7219 63.6343C66.0883 63.9236 66.5319 64.1405 67.0526 64.2852C67.5733 64.4202 68.1374 64.4877 68.7449 64.4877C69.3524 64.4877 69.8731 64.4298 70.307 64.3141C70.7409 64.208 71.1025 64.0682 71.3918 63.8946C71.6907 63.7114 71.9221 63.5089 72.086 63.2871C72.2596 63.0654 72.3898 62.8484 72.4766 62.6363C72.573 62.4145 72.6309 62.2072 72.6501 62.0143C72.6791 61.8215 72.6935 61.6672 72.6935 61.5515C72.6935 61.1272 72.6212 60.7656 72.4766 60.4667C72.3416 60.1678 72.1487 59.9171 71.898 59.7146C71.6569 59.5024 71.3725 59.3289 71.0446 59.1939C70.7264 59.0492 70.3841 58.9287 70.0177 58.8323L67.501 58.2103C67.2888 58.1621 67.0863 58.0994 66.8935 58.0223C66.7103 57.9451 66.5464 57.8439 66.4017 57.7185C66.2571 57.5932 66.1414 57.4437 66.0546 57.2702C65.9774 57.0869 65.9389 56.8748 65.9389 56.6337C65.9389 56.248 66.0112 55.925 66.1558 55.6647C66.3005 55.4043 66.4885 55.197 66.7199 55.0427C66.961 54.8788 67.2358 54.7631 67.5444 54.6956C67.8626 54.6184 68.1904 54.5799 68.5279 54.5799C68.8943 54.5799 69.2415 54.6329 69.5693 54.739C69.9068 54.8354 70.2009 54.9849 70.4516 55.1874C70.712 55.3802 70.9193 55.6261 71.0736 55.925C71.2375 56.2143 71.3291 56.5566 71.3484 56.9519H72.3319C72.3319 56.4216 72.2259 55.9588 72.0137 55.5634C71.8112 55.1584 71.5364 54.8209 71.1893 54.5509C70.8421 54.2809 70.4372 54.0785 69.9743 53.9435C69.5115 53.8085 69.0245 53.741 68.5135 53.741C67.7903 53.741 67.1972 53.847 66.7344 54.0592C66.2715 54.2617 65.9051 54.5124 65.6351 54.8113C65.3748 55.1102 65.1964 55.4284 65.1 55.7659C65.0035 56.1034 64.9553 56.3975 64.9553 56.6482C64.9553 57.0532 65.018 57.3955 65.1434 57.6751C65.2784 57.9548 65.4519 58.191 65.6641 58.3839C65.8762 58.5767 66.1221 58.731 66.4017 58.8467C66.691 58.9624 66.9851 59.0589 67.284 59.136L69.5838 59.7001C69.8248 59.7579 70.0707 59.8351 70.3214 59.9315C70.5722 60.0183 70.7988 60.134 71.0012 60.2787C71.2134 60.4233 71.3821 60.6017 71.5075 60.8138C71.6425 61.026 71.71 61.2767 71.71 61.5659C71.71 61.942 71.6184 62.265 71.4352 62.535C71.252 62.7954 71.0205 63.0123 70.7409 63.1859C70.4709 63.3498 70.1768 63.4704 69.8586 63.5475C69.5404 63.6246 69.2463 63.6632 68.9763 63.6632C68.5038 63.6632 68.0603 63.6198 67.6456 63.533C67.231 63.4366 66.8694 63.2823 66.5608 63.0702C66.2619 62.858 66.0257 62.5736 65.8521 62.2168C65.6785 61.86 65.5966 61.4165 65.6062 60.8861Z" fill="black"></path></svg> 