<?xml version="1.0" encoding="UTF-8"?> <svg xmlns="http://www.w3.org/2000/svg" width="87" height="87" viewBox="0 0 87 87" fill="none"><path d="M64.8851 86.9281H22.043C0.251672 86.9281 0 65.105 0 64.8851V22.043C0 0.251673 21.8232 0 22.043 0H64.8851C86.6765 0 86.9281 21.8232 86.9281 22.043V64.8851C86.9281 86.6765 65.105 86.9281 64.8851 86.9281ZM22.043 1.44639C21.2012 1.44639 1.44639 1.70964 1.44639 22.043V64.8851C1.44639 65.7269 1.70964 85.4817 22.043 85.4817H64.8851C65.7269 85.4817 85.4817 85.2185 85.4817 64.8851V22.043C85.4817 21.2012 85.2185 1.44639 64.8851 1.44639H22.043Z" fill="black"></path><path d="M20.543 30.8594H22.5101V39.8212H34.7668V30.8594H36.7339V51.5023H34.7668V41.499H22.5072V51.5023H20.543V30.8594Z" fill="black"></path><path d="M45.0601 49.3281C46.8623 49.3281 47.707 50.6067 47.707 51.7725C47.707 53.1061 47.033 53.9479 46.3069 54.6913C46.0205 54.9922 41.3689 59.6843 41.3689 59.6843C41.3689 59.6843 45.1295 59.6843 46.0552 59.6843C46.6627 59.6843 46.845 60.0025 46.845 60.4075C46.845 60.8154 46.6454 61.1336 46.0379 61.1336H40.5763C39.8849 61.1336 39.3613 60.8645 39.3613 60.2397C39.3613 59.8318 39.5291 59.5802 39.7837 59.3111L45.2134 53.7483C45.8036 53.1582 46.2259 52.6028 46.2259 51.8072C46.2259 51.0667 45.6184 50.7109 44.9589 50.7109H43.8799C43.0525 50.7109 42.6157 51.1824 42.3785 51.8072C42.2252 52.1978 42.0082 52.4494 41.5338 52.4494C41.0276 52.4494 40.7065 52.0444 40.961 51.3531C41.3978 50.1728 42.3785 49.331 43.9464 49.331C45.3986 49.3281 44.6233 49.3281 45.0601 49.3281Z" fill="black"></path><path d="M48.0234 41.1772C48.0234 39.7511 48.223 38.3915 48.6309 37.1013C49.0359 35.8111 49.6434 34.6685 50.4505 33.6763C51.2605 32.6811 52.2787 31.8914 53.5024 31.3042C54.726 30.7169 56.1493 30.4219 57.7692 30.4219C59.3892 30.4219 60.8038 30.7169 62.0187 31.3042C63.2337 31.8914 64.2462 32.684 65.0561 33.6763C65.8632 34.6685 66.4707 35.8082 66.8786 37.1013C67.2836 38.3915 67.4832 39.7511 67.4832 41.1772C67.4832 42.6034 67.2836 43.963 66.8786 45.2532C66.4707 46.5463 65.8632 47.6831 65.0561 48.6667C64.2462 49.6502 63.2337 50.4342 62.0187 51.0214C60.8038 51.6086 59.3892 51.9037 57.7692 51.9037C56.1493 51.9037 54.726 51.6086 53.5024 51.0214C52.2787 50.4342 51.2634 49.6473 50.4505 48.6667C49.6434 47.6831 49.0359 46.5491 48.6309 45.2532C48.223 43.963 48.0234 42.6063 48.0234 41.1772ZM49.9876 41.1772C49.9876 42.2968 50.1381 43.4018 50.4331 44.4895C50.734 45.5801 51.1968 46.552 51.8217 47.4112C52.4465 48.2675 53.2507 48.9559 54.2342 49.4795C55.2178 50.0002 56.3923 50.2606 57.7634 50.2606C59.1317 50.2606 60.3033 50.0002 61.2753 49.4795C62.2502 48.9559 63.0486 48.2675 63.6763 47.4112C64.3011 46.552 64.764 45.5801 65.0619 44.4895C65.3628 43.4018 65.5103 42.2968 65.5103 41.1772C65.5103 40.0404 65.3599 38.9324 65.0619 37.8534C64.764 36.7744 64.2982 35.8053 63.6763 34.9491C63.0486 34.0899 62.2502 33.4014 61.2753 32.8807C60.3033 32.36 59.1317 32.0997 57.7634 32.0997C56.3923 32.0997 55.2178 32.36 54.2342 32.8807C53.2507 33.4014 52.4465 34.0899 51.8217 34.9491C51.1939 35.8053 50.7311 36.7744 50.4331 37.8534C50.1381 38.9324 49.9876 40.0433 49.9876 41.1772Z" fill="black"></path></svg> 