<?xml version="1.0" encoding="UTF-8"?> <svg xmlns="http://www.w3.org/2000/svg" width="87" height="87" viewBox="0 0 87 87" fill="none"><g clip-path="url(#clip0)"><path d="M62.7714 33.9124L60.6076 36.4465L62.5516 30.0274L45.9325 6.97189C45.1544 5.89288 43.653 5.64121 42.5798 6.41069L29.3511 15.8672C28.2779 16.6367 28.0378 18.1322 28.8131 19.2113L45.4321 42.2667L55.3601 42.5878L49.3026 49.6723C48.3249 50.8207 48.3017 52.4638 49.158 53.6441L48.0211 54.9834L50.6189 57.2022L51.7586 55.8628C53.0546 56.5224 54.6745 56.2447 55.6552 55.0991L63.5641 45.848C63.8013 46.0679 64.0356 46.2964 64.2641 46.5307C64.9642 47.2452 65.6266 48.0118 66.2341 48.8189C66.8416 49.626 67.3999 50.4707 67.8627 51.3385C68.0942 51.7724 68.2995 52.2121 68.4673 52.646C68.6322 53.0829 68.7566 53.5168 68.8116 53.9073L68.8231 53.9825C68.9215 54.6826 69.5666 55.1743 70.2666 55.0818C70.8799 55.0008 71.3312 54.4945 71.3659 53.8986C71.4035 53.2015 71.3341 52.5622 71.2242 51.946C71.1142 51.3298 70.9609 50.7426 70.7816 50.1698C70.4171 49.0243 69.9571 47.9395 69.4335 46.8894C69.0661 46.1575 68.6669 45.443 68.2359 44.743L83.8135 51.1968C85.8414 52.0096 88.306 50.8554 89.3185 48.6164L90.0938 47.0167C91.1062 44.7777 90.2847 42.3043 88.2569 41.4915L66.7808 33.0185C65.1435 32.4371 63.7203 32.8015 62.7714 33.9124Z" stroke="black" stroke-width="1.44639" stroke-miterlimit="10" stroke-linecap="round" stroke-linejoin="round"></path><path d="M32.0361 17.8867L38.8429 26.8254H56.8013L44.0904 9.76953L32.0361 17.8867Z" fill="black"></path><path d="M48.4796 60.0366C48.4449 60.6586 48.9222 61.1966 49.5442 61.2371C50.169 61.2747 50.7013 60.8032 50.736 60.1813C50.7707 59.5593 50.2934 59.0213 49.6715 58.9808C49.0466 58.9432 48.5144 59.4147 48.4796 60.0366ZM47.1663 58.6221C46.689 58.2142 45.9774 58.2691 45.5724 58.7407C45.1703 59.2122 45.2282 59.9267 45.7055 60.3317C46.1799 60.7396 46.8944 60.6875 47.2994 60.2131C47.7015 59.7416 47.6436 59.0271 47.1663 58.6221ZM42.8474 63.6787C42.3701 63.2708 41.6556 63.3257 41.2535 63.7973C40.8485 64.2717 40.9092 64.9833 41.3836 65.3912C41.861 65.7962 42.5755 65.7441 42.9776 65.2726C43.3826 64.7982 43.3218 64.0865 42.8474 63.6787ZM48.1065 66.6987C48.0718 67.3207 48.5491 67.8587 49.1739 67.8963C49.7959 67.9368 50.331 67.4653 50.3657 66.8434C50.4005 66.2214 49.9231 65.6834 49.2983 65.6429C48.6764 65.6024 48.1412 66.0768 48.1065 66.6987ZM39.8736 57.491C39.7492 56.8777 39.1504 56.4814 38.54 56.6029C37.9268 56.7244 37.5334 57.3174 37.6606 57.9278C37.785 58.5411 38.3838 58.9374 38.9971 58.8188C39.6075 58.6973 40.0009 58.1014 39.8736 57.491ZM45.0054 61.1504C44.531 60.7425 43.8165 60.7974 43.4115 61.269C43.0094 61.7405 43.0672 62.455 43.5446 62.8629C44.0219 63.2679 44.7335 63.2158 45.1385 62.7414C45.5406 62.2699 45.4827 61.5582 45.0054 61.1504ZM48.2945 63.3662C48.2569 63.9911 48.7342 64.5262 49.3591 64.5667C49.9839 64.6072 50.5162 64.1328 50.5509 63.5109C50.5856 62.8889 50.1083 62.3538 49.4863 62.3133C48.8615 62.2728 48.3292 62.7443 48.2945 63.3662ZM43.1482 56.843C43.021 56.2297 42.4222 55.8334 41.8118 55.9549C41.1985 56.0764 40.8051 56.6694 40.9324 57.2827C41.0597 57.8931 41.6585 58.2894 42.2688 58.1708C42.8792 58.0493 43.2726 57.4534 43.1482 56.843ZM46.42 56.195C46.2927 55.5846 45.6968 55.1854 45.0835 55.3069C44.4731 55.4284 44.0797 56.0215 44.2041 56.6347C44.3314 57.2451 44.9302 57.6443 45.5406 57.5228C46.1538 57.4013 46.5473 56.8083 46.42 56.195Z" fill="black"></path><path d="M22.0825 0.722656C22.0825 0.722656 0.762695 0.722656 0.762695 22.0425V64.8846C0.762695 64.8846 0.762695 86.2044 22.0825 86.2044H64.9246C64.9246 86.2044 86.2444 86.2044 86.2444 64.8846V22.0425C86.2444 22.0425 86.2444 0.722656 64.9246 0.722656H22.0825Z" stroke="black" stroke-width="1.44639"></path><path d="M11.3564 72.0859H75.6457" stroke="black" stroke-width="1.44639" stroke-linecap="round" stroke-linejoin="round"></path><path d="M22.0464 0.722656C22.0464 0.722656 0.726562 0.722656 0.726562 22.0425V64.8846C0.726562 64.8846 0.726562 86.2044 22.0464 86.2044H64.8885C64.8885 86.2044 86.2083 86.2044 86.2083 64.8846V22.0425C86.2083 22.0425 86.2083 0.722656 64.8885 0.722656H22.0464Z" stroke="black" stroke-width="1.44639"></path></g><defs><clipPath id="clip0"><rect width="86.9281" height="86.9281" fill="white"></rect></clipPath></defs></svg> 