<?xml version="1.0" encoding="UTF-8"?> <svg xmlns="http://www.w3.org/2000/svg" width="87" height="87" viewBox="0 0 87 87" fill="none"><g clip-path="url(#clip0)"><path d="M91.9883 66.6829H15.2948C15.0026 66.6829 14.7394 66.5065 14.6266 66.2374C14.5138 65.9684 14.5774 65.656 14.7828 65.4506L59.78 20.4534C59.916 20.3174 60.0982 20.2422 60.2921 20.2422H91.5804C91.9796 20.2422 92.3036 20.5662 92.3036 20.9654C92.3036 21.3646 91.9796 21.6886 91.5804 21.6886H60.59L17.0392 65.2365H91.9883C92.3875 65.2365 92.7115 65.5605 92.7115 65.9597C92.7115 66.3589 92.3875 66.6829 91.9883 66.6829Z" fill="black"></path><path d="M22.0405 0.722656C22.0405 0.722656 0.720703 0.722656 0.720703 22.0425V64.8846C0.720703 64.8846 0.720703 86.2044 22.0405 86.2044H64.8826C64.8826 86.2044 86.2024 86.2044 86.2024 64.8846V22.0425C86.2024 22.0425 86.2024 0.722656 64.8826 0.722656H22.0405Z" stroke="black" stroke-width="1.44639"></path></g><defs><clipPath id="clip0"><rect width="86.9281" height="86.9281" fill="white"></rect></clipPath></defs></svg> 