<?xml version="1.0" encoding="UTF-8"?> <svg xmlns="http://www.w3.org/2000/svg" width="87" height="87" viewBox="0 0 87 87" fill="none"><g clip-path="url(#clip0)"><path style="fill: none; stroke: black; paint-order: stroke; stroke-width: 1.446px;" d="M 1.082 31.059 C 23.621 31.059 34.56 31.299 57.099 31.299"></path><path d="M22.228 0.722656C22.228 0.722656 0.908203 0.722656 0.908203 22.0425V64.8846C0.908203 64.8846 0.908203 86.2044 22.228 86.2044H65.0701C65.0701 86.2044 86.3899 86.2044 86.3899 64.8846V22.0425C86.3899 22.0425 86.3899 0.722656 65.0701 0.722656H22.228Z" stroke="black" stroke-width="1.44639"></path><path d="M61.3588 27.3926C61.0839 27.3926 60.812 27.2856 60.6037 27.0773C60.1959 26.6608 60.2016 25.9897 60.6182 25.5818L73.0167 13.3279C73.4332 12.9172 74.1015 12.9229 74.5093 13.3395C74.9201 13.7561 74.9143 14.4243 74.4978 14.8351L62.0993 27.0889C61.8939 27.2914 61.6249 27.3926 61.3588 27.3926Z" fill="black"></path><path d="M73.5263 24.45C73.5089 24.45 73.4944 24.45 73.4771 24.45C72.8956 24.424 72.4444 23.9293 72.4704 23.3449L72.6526 15.167L64.4718 15.2828C63.8788 15.3175 63.4044 14.8373 63.3871 14.2558C63.3726 13.6715 63.8296 13.1855 64.414 13.1681L73.7316 13.0235C74.0238 13.0206 74.3073 13.1305 74.5127 13.3388C74.7181 13.55 74.828 13.8335 74.8164 14.1285L74.5821 23.4404C74.5561 24.0074 74.0875 24.45 73.5263 24.45Z" fill="black"></path><path style="fill: none; stroke: black; paint-order: stroke; stroke-width: 1.446px;" d="M 28.85 58.227 C 50.857 58.227 61.538 58.467 83.545 58.467" transform="matrix(0, 1, -1, 0, 114.5445, 2.1495)"></path></g><defs><clipPath id="clip0"><rect width="86.9281" height="86.9281" fill="white"></rect></clipPath></defs></svg> 