<?xml version="1.0" encoding="UTF-8"?> <svg xmlns="http://www.w3.org/2000/svg" width="87" height="87" viewBox="0 0 87 87" fill="none"><g clip-path="url(#clip0)"><path d="M22.228 0.722656C22.228 0.722656 0.908203 0.722656 0.908203 22.0425V64.8846C0.908203 64.8846 0.908203 86.2044 22.228 86.2044H65.0701C65.0701 86.2044 86.3899 86.2044 86.3899 64.8846V22.0425C86.3899 22.0425 86.3899 0.722656 65.0701 0.722656H22.228Z" stroke="black" stroke-width="1.44639"></path><path d="M-3.75488 46.543H92.3781" stroke="black" stroke-width="1.44639"></path><path d="M-3.75488 40.3867H92.3781" stroke="black" stroke-width="1.44639"></path><path d="M-3.75488 52.6875H92.3781" stroke="black" stroke-width="1.44639"></path><path d="M-3.75488 58.8398H92.3781" stroke="black" stroke-width="1.44639"></path><path d="M-3.75488 34.2422H92.3781" stroke="black" stroke-width="1.44639"></path><path d="M-3.75391 28.0898H92.3791" stroke="black" stroke-width="1.44639"></path><path d="M-3.14355 40.294L2.59573 34.5547" stroke="black" stroke-width="1.44639"></path><path d="M9.15527 40.294L14.8946 34.5547" stroke="black" stroke-width="1.44639"></path><path d="M3.00488 40.294L8.74416 34.5547" stroke="black" stroke-width="1.44639"></path><path d="M15.3037 40.294L21.043 34.5547" stroke="black" stroke-width="1.44639"></path><path d="M21.4541 40.294L27.1934 34.5547" stroke="black" stroke-width="1.44639"></path><path d="M27.6025 40.294L33.3418 34.5547" stroke="black" stroke-width="1.44639"></path><path d="M33.7529 40.294L39.4922 34.5547" stroke="black" stroke-width="1.44639"></path><path d="M39.9043 40.294L45.6436 34.5547" stroke="black" stroke-width="1.44639"></path><path d="M46.0566 40.294L51.7959 34.5547" stroke="black" stroke-width="1.44639"></path><path d="M52.2031 40.294L57.9424 34.5547" stroke="black" stroke-width="1.44639"></path><path d="M58.3555 40.294L64.0947 34.5547" stroke="black" stroke-width="1.44639"></path><path d="M64.502 40.294L70.2412 34.5547" stroke="black" stroke-width="1.44639"></path><path d="M70.6553 40.294L76.3946 34.5547" stroke="black" stroke-width="1.44639"></path><path d="M76.8008 40.294L82.5401 34.5547" stroke="black" stroke-width="1.44639"></path><path d="M82.9561 40.294L88.6953 34.5547" stroke="black" stroke-width="1.44639"></path><path d="M-3.14355 52.4268L2.59573 46.6875" stroke="black" stroke-width="1.44639"></path><path d="M9.15527 52.4268L14.8946 46.6875" stroke="black" stroke-width="1.44639"></path><path d="M3.00488 52.4268L8.74416 46.6875" stroke="black" stroke-width="1.44639"></path><path d="M15.3037 52.4268L21.043 46.6875" stroke="black" stroke-width="1.44639"></path><path d="M21.4541 52.4268L27.1934 46.6875" stroke="black" stroke-width="1.44639"></path><path d="M27.6025 52.4268L33.3418 46.6875" stroke="black" stroke-width="1.44639"></path><path d="M33.7529 52.4268L39.4922 46.6875" stroke="black" stroke-width="1.44639"></path><path d="M39.9043 52.4268L45.6436 46.6875" stroke="black" stroke-width="1.44639"></path><path d="M46.0566 52.4268L51.7959 46.6875" stroke="black" stroke-width="1.44639"></path><path d="M52.2031 52.4268L57.9424 46.6875" stroke="black" stroke-width="1.44639"></path><path d="M58.3555 52.4268L64.0947 46.6875" stroke="black" stroke-width="1.44639"></path><path d="M64.502 52.4268L70.2412 46.6875" stroke="black" stroke-width="1.44639"></path><path d="M70.6553 52.4268L76.3946 46.6875" stroke="black" stroke-width="1.44639"></path><path d="M76.8008 52.4268L82.5401 46.6875" stroke="black" stroke-width="1.44639"></path><path d="M82.9561 52.4268L88.6953 46.6875" stroke="black" stroke-width="1.44639"></path></g><defs><clipPath id="clip0"><rect width="86.9281" height="86.9281" fill="white"></rect></clipPath></defs></svg> 