<svg xmlns="http://www.w3.org/2000/svg" viewBox="0 0 128.92 100.92"><path stroke="#000000" stroke-width=".5" d="M74.6 7.83V1.24Zm0-7.5Zm53.99 14.47ZM50.5 33.67v4.65Zm0 4.65c0 .5.33.93.81 1.06m73.46-25.61v4.21ZM50.5 66.63v4.64Zm0 4.64c0 .5.33.94.81 1.06m73.46-23.56v2.16ZM.34 20.24Zm0 65.9Zm53.98 14.46 74.27-19.9Zm0 0V70.94Zm0-62.6 74.27-19.9Zm74.27-19.9v29.65ZM52.2 100.03.33 86.13ZM.33 86.14v-65.9ZM50.5 33.67.33 20.23Zm74.27-19.9L74.6.33ZM52.2 33.22 2.03 19.78Zm70.87-18.99L72.9.8Zm-70.87 85.8V70.38Zm2.12.57-2.12-.57ZM.33 20.24 74.6.34ZM50.5 33.68l74.27-19.9ZM.33 20.24 74.6.34Zm3.4 0 70.87-19ZM72.9 8.29V28ZM16.03 23.53 74.6 7.83ZM54.32 38l-2.12-.57Zm-2.12-.57 74.26-19.9Zm76.38-19.33-2.12-.57ZM52.2 39.62l-.89-.24Zm-1.7-1.29 1.7-.46Zm3.82 32.61 74.26-19.9Zm-3.82-4.31 1.7-.46Zm3.82 4.31-2.12-.56Zm-2.12-.56 74.26-19.9Zm76.38-19.34-2.12-.57ZM52.2 72.57l-.89-.24Zm-1.7-1.3 1.7-.45Zm3.82-3.62 74.26-19.9Zm0 0-2.12-.57Zm-2.12-.57V37.43Zm2.12.57V37.99Zm74.26-16.61V80.7Z"/>
</svg>