<svg xmlns="http://www.w3.org/2000/svg" viewBox="0 0 149.38 106.54"><path stroke="currentColor" stroke-width=".5" d="m74.63 106.22 74.42-19.94Zm0 0V43.5Zm0-62.73 74.42-19.94Zm74.42-19.94v62.73ZM45.92 98.53.33 86.32ZM.33 86.32V20.28ZM45.92 32.5.33 20.27Zm74.42-19.95L74.75.34ZM45.92 32.5l74.42-19.95Zm0-.92L2.03 19.82Zm71.02-19.03L73.05.8ZM.33 20.28Zm0 66.03Zm45.59 12.22V35.2Zm28.71 7.69-2.13-.57ZM.33 20.28 74.75.33Zm120.01-7.73v5.5ZM45.92 32.5v2.69Zm-1.7-.46 74.42-19.94Zm30.41 11.45-2.13 1.63ZM.33 20.28 74.75.33Zm3.4 0L74.75 1.25ZM73.05 8.3v10.38ZM16.06 23.58l58.7-15.73ZM74.75 7.85v-6.6Zm0-7.52zm45.59 12.22v.55ZM45.92 38l74.42-19.95Zm26.58 67.65V45.12Zm-24.66-7.63V37.48Zm-1.92.51 1.92-.51Zm74.42-77.25V15.8Zm-72.5 76.74 9.86-2.64Zm0-1.98L54 94.39ZM72.5 82.83l-24.66-6.6Zm0-.85-24.66-6.61Zm0 17.36-24.66-6.6Zm0 0-24.66-6.6ZM62.38 79.27l10.12-2.72Zm-3.91-36.74 59.96-16.06Zm0 9.91 14.03-3.76Zm0-9.91v9.9Zm0 9.91-10.63-2.85Zm0-9.91-10.63-2.85Zm70.59-18.91-14.74-3.95ZM58.47 42.53l70.59-18.91Zm70.59-13.63v-5.28Zm-10.63-8.13v-2.2Zm-7.86 7.8-14.74-3.95Zm-75.15.2 56.43-15.12Zm56.43-9.84v-5.28Zm10.5-2.47-10.5-2.81Z"/></svg>