<svg xmlns="http://www.w3.org/2000/svg" viewBox="0 0 128.92 67.98" >
    <path stroke="currentColor" stroke-width=".5" d="M74.6 7.83V1.24Zm0-7.5Zm53.99 14.47ZM50.5 33.67v4.66Zm0 4.66c0 .5.33.93.81 1.06m73.46-25.62v4.21ZM.34 20.24Zm0 32.95Zm53.98 14.46 74.27-19.9Zm0 0V38Zm0-29.65 74.27-19.9Zm74.27-19.9v29.65ZM52.2 67.08.33 53.18ZM.33 53.19V20.24ZM50.5 33.68.33 20.24Zm74.27-19.9L74.6.34ZM52.2 33.22 2.03 19.78Zm70.87-18.99L72.9.8ZM52.2 67.09V37.43Zm2.12.56-2.12-.56ZM.33 20.24 74.6.34ZM50.5 33.68l74.27-19.9ZM.33 20.24 74.6.34Zm3.4 0 70.87-19ZM72.9 8.3v19.59ZM16.03 23.53 74.6 7.83ZM54.32 38l-2.12-.57Zm-2.12-.57 74.26-19.9Zm76.39-19.33-2.13-.57ZM52.2 39.63l-.89-.24Zm-1.7-1.3 1.7-.46Z"/>
</svg>