<?xml version="1.0" encoding="UTF-8"?> <svg xmlns="http://www.w3.org/2000/svg" width="86" height="115" viewBox="0 0 86 115" fill="none"><g clip-path="url(#clip0)"><path d="M15.7021 113.966C7.46365 113.966 0.726126 107.252 0.726126 99.0566V15.6316C0.726126 7.43353 7.46374 0.71929 15.7021 0.71929H69.5975C77.8358 0.71929 84.5734 7.43353 84.5734 15.6316V99.0566C84.5734 107.252 77.8359 113.966 69.5975 113.966H15.7021Z" stroke="black" stroke-width="1.44639"></path><path d="M9.22512 95.6371C8.04486 95.6371 7.81055 95.0151 7.81055 94.3758V91.9922H8.32546V94.3382C8.32546 94.8329 8.49903 95.235 9.25983 95.235C9.91939 95.235 10.226 94.9718 10.226 94.2486V91.9922H10.7294V94.211C10.7294 95.154 10.2116 95.6371 9.22512 95.6371Z" fill="black"></path><path d="M11.7539 91.9922V95.585H13.6226V95.1656H12.2688V91.9922H11.7539Z" fill="black"></path><path d="M15.3408 95.5834V95.19L16.0496 94.4118C16.6889 93.7205 16.8509 93.3647 16.8509 92.9857C16.8509 92.6444 16.6397 92.3695 16.1913 92.3695C15.9454 92.3695 15.6648 92.4592 15.4536 92.5865L15.3813 92.1497C15.6388 92.0282 15.9396 91.9414 16.3244 91.9414C17.0302 91.9414 17.4005 92.3637 17.4005 92.9105C17.4005 93.4052 17.1604 93.8593 16.4806 94.5883L15.983 95.1408V95.1466C16.3186 95.1321 16.9 95.1264 17.5393 95.1264V95.5834H15.3408V95.5834Z" fill="black"></path><path d="M19.4082 92.3056C19.0061 92.3056 18.7602 92.5139 18.7602 92.8118C18.7602 93.0982 19.0119 93.2834 19.414 93.4916C19.845 93.2371 20.0244 93.0577 20.0244 92.8118C20.0244 92.5341 19.8248 92.3056 19.4082 92.3056ZM19.3533 93.9574C19.0119 94.1512 18.7168 94.3624 18.7168 94.6835C18.7168 95.0161 18.9772 95.2273 19.4082 95.2273C19.7901 95.2273 20.0967 95.048 20.0967 94.7066C20.0967 94.3508 19.7409 94.1483 19.3533 93.9574ZM19.3533 95.6323C18.5925 95.6323 18.1846 95.2534 18.1846 94.7327C18.1846 94.2872 18.5491 93.9921 18.9454 93.7549C18.497 93.509 18.2453 93.2429 18.2453 92.8639C18.2453 92.294 18.7342 91.918 19.4603 91.918C20.1372 91.918 20.5509 92.2854 20.5509 92.7684C20.5509 93.1908 20.2037 93.4569 19.8248 93.6941C20.2876 93.9342 20.629 94.2206 20.629 94.6574C20.629 95.2823 20.0591 95.6323 19.3533 95.6323Z" fill="black"></path><path d="M22.0656 91.9922L21.1602 92.3017L21.244 92.7472L21.9528 92.4811V95.585H22.4735V91.9922H22.0656Z" fill="black"></path><path d="M24.5889 92.3056C24.1868 92.3056 23.9409 92.5139 23.9409 92.8118C23.9409 93.0982 24.1926 93.2834 24.5947 93.4916C25.0257 93.2371 25.205 93.0577 25.205 92.8118C25.205 92.5341 25.0054 92.3056 24.5889 92.3056ZM24.5339 93.9574C24.1926 94.1512 23.8975 94.3624 23.8975 94.6835C23.8975 95.0161 24.1579 95.2273 24.5889 95.2273C24.9707 95.2273 25.2774 95.048 25.2774 94.7066C25.2774 94.3508 24.9215 94.1483 24.5339 93.9574ZM24.5339 95.6323C23.7731 95.6323 23.3652 95.2534 23.3652 94.7327C23.3652 94.2872 23.7297 93.9921 24.126 93.7549C23.6777 93.509 23.426 93.2429 23.426 92.8639C23.426 92.294 23.9149 91.918 24.641 91.918C25.3179 91.918 25.7315 92.2854 25.7315 92.7684C25.7315 93.1908 25.3844 93.4569 25.0054 93.6941C25.4683 93.9342 25.8096 94.2206 25.8096 94.6574C25.8096 95.2823 25.2398 95.6323 24.5339 95.6323Z" fill="black"></path><path d="M0.1875 99.582H85.4812" stroke="black" stroke-width="1.17447" stroke-miterlimit="10"></path><path d="M35.5489 110.306C33.8624 110.306 32.873 109.314 32.873 107.671C32.873 105.982 33.8624 104.77 35.7745 104.77C36.301 104.77 36.8043 104.856 37.2672 105.001L37.1081 105.663C36.6684 105.496 36.1882 105.4 35.7022 105.4C34.2471 105.4 33.6541 106.421 33.6541 107.558C33.6541 108.9 34.3975 109.667 35.653 109.667C36.0117 109.667 36.3155 109.612 36.6047 109.522V107.486H37.3308V109.994C36.7957 110.193 36.1419 110.306 35.5489 110.306Z" fill="black"></path><path d="M40.7984 105.406C39.8611 105.406 39.0945 106.158 39.0945 107.491C39.0945 108.787 39.647 109.658 40.7897 109.658C41.7241 109.658 42.4907 108.915 42.4907 107.578C42.4907 106.285 41.9323 105.406 40.7984 105.406ZM40.7174 110.312C39.0945 110.312 38.3135 109.233 38.3135 107.604C38.3135 105.796 39.4619 104.758 40.8678 104.758C42.4907 104.758 43.2746 105.837 43.2746 107.468C43.2746 109.273 42.1146 110.312 40.7174 110.312Z" fill="black"></path><path d="M44.293 104.84V110.235H46.963V109.601H45.0277V104.84H44.293Z" fill="black"></path><path d="M49.2352 105.415C48.9546 105.415 48.6277 105.433 48.4281 105.438V109.595C48.6277 109.627 48.9228 109.644 49.1398 109.644C50.401 109.644 51.2891 108.988 51.2891 107.527C51.2891 106.15 50.6324 105.415 49.2352 105.415ZM49.0588 110.266C48.5149 110.266 48.0926 110.235 47.6934 110.235V104.848C48.107 104.84 48.7145 104.816 49.3075 104.816C51.0316 104.816 52.0644 105.623 52.0644 107.478C52.0644 109.323 50.8262 110.266 49.0588 110.266Z" fill="black"></path><path d="M42.3126 43.2376C49.8917 43.2376 56.2327 37.938 57.8382 30.842C53.2444 28.2703 47.9535 26.8008 42.3126 26.8008C36.6717 26.8008 31.3779 28.2703 26.7812 30.842C28.3896 37.938 34.7306 43.2376 42.3126 43.2376Z" fill="black"></path><path d="M48.3415 24.8527H43.7275V15.6016H45.8566V22.8393H48.3415V24.8527Z" fill="black"></path><path d="M42.2839 18.9028C42.2839 20.5893 41.0602 21.4716 39.4518 21.4716C37.8579 21.4716 36.5938 20.6124 36.5938 18.9028V12.125H38.7142V18.9867C38.7142 19.4727 39.0382 19.7938 39.4316 19.7938C39.932 19.7938 40.1577 19.3888 40.1577 18.9867V12.125H42.2839V18.9028Z" fill="black"></path><path d="M42.3256 9.50635C33.5286 9.50635 26.3979 16.6371 26.3979 25.434C26.3979 34.231 33.5286 41.3617 42.3256 41.3617C51.1196 41.3617 58.2532 34.231 58.2532 25.434C58.2532 16.6371 51.1196 9.50635 42.3256 9.50635ZM61.739 25.434C61.739 36.1547 53.0491 44.8504 42.3256 44.8504C31.6049 44.8504 22.9121 36.1547 22.9121 25.434C22.9121 14.7134 31.6049 6.02344 42.3256 6.02344C53.0491 6.02344 61.739 14.7134 61.739 25.434Z" fill="black"></path><path d="M39.1426 40.1124C39.1426 37.7113 39.9468 32.8775 45.4663 31.0724C40.3836 34.0635 40.2188 38.8829 40.2274 39.826L42.316 39.4557C44.8299 39.0131 46.8779 36.615 46.8779 34.1156V29.6289L42.3652 30.4244C39.8485 30.867 37.6934 33.3895 37.6934 36.0682V39.5627V40.2541V45.2557C38.0694 45.3888 38.7434 45.328 39.1426 45.4033V40.1124Z" fill="white"></path><path d="M8.70152 72.448C8.49903 72.448 8.32546 72.4595 8.32546 72.4595V73.8741C8.32546 73.8741 8.50481 73.9059 8.71599 73.9059C9.29165 73.9059 9.57225 73.608 9.57225 73.1567C9.57225 72.6996 9.29165 72.448 8.70152 72.448ZM8.6726 74.3109C8.48746 74.3109 8.32546 74.2965 8.32546 74.2965V75.6589H7.81055V72.0661C7.81055 72.0661 8.30811 72.043 8.75649 72.043C9.63011 72.043 10.1045 72.4537 10.1045 73.0931C10.1045 73.8047 9.56647 74.3109 8.6726 74.3109Z" fill="black"></path><path d="M11.6834 72.4422C11.5561 72.4422 11.4433 72.4451 11.3421 72.4509V73.6774C11.3999 73.6803 11.5098 73.6861 11.6632 73.6861C12.2041 73.6861 12.5165 73.4257 12.5165 73.0439C12.5165 72.6128 12.233 72.4422 11.6834 72.4422ZM12.6467 75.6561L11.4115 74.0477H11.3421V75.6561H10.8271V72.0632C11.0875 72.0488 11.3594 72.043 11.7731 72.043C12.5165 72.043 13.0546 72.2917 13.0546 72.9773C13.0546 73.5906 12.5455 73.9464 11.9467 73.9898C12.0595 74.1171 12.1781 74.2559 12.2706 74.3746L13.3005 75.6561H12.6467Z" fill="black"></path><path d="M15.4856 72.4388C14.8319 72.4388 14.2938 72.9393 14.2938 73.8303C14.2938 74.6923 14.6814 75.2709 15.4798 75.2709C16.1365 75.2709 16.6717 74.7762 16.6717 73.8881C16.6717 73.0261 16.2811 72.4388 15.4856 72.4388ZM15.4307 75.7077C14.2938 75.7077 13.7471 74.9903 13.7471 73.9026C13.7471 72.7021 14.5542 72.0078 15.5377 72.0078C16.6717 72.0078 17.2213 72.7281 17.2213 73.8129C17.2213 75.0163 16.4084 75.7077 15.4307 75.7077Z" fill="black"></path><path d="M19.0751 72.4461C18.8784 72.4461 18.6498 72.4576 18.5081 72.4634V75.2289C18.6498 75.2521 18.8552 75.2608 19.0056 75.2608C19.8908 75.2608 20.5128 74.8268 20.5128 73.852C20.5128 72.935 20.0528 72.4461 19.0751 72.4461ZM18.9507 75.6773C18.5717 75.6773 18.2738 75.6542 17.9932 75.6542V72.0671C18.2853 72.0613 18.7106 72.0469 19.1242 72.0469C20.3334 72.0469 21.0537 72.5849 21.0537 73.8201C21.0537 75.0496 20.1859 75.6773 18.9507 75.6773Z" fill="black"></path><path d="M23.2652 75.7074C22.0849 75.7074 21.8506 75.0855 21.8506 74.4462V72.0625H22.3655V74.4085C22.3655 74.9032 22.5391 75.3053 23.2999 75.3053C23.9594 75.3053 24.2661 75.0421 24.2661 74.3189V72.0625H24.7694V74.2813C24.7694 75.2243 24.2487 75.7074 23.2652 75.7074Z" fill="black"></path><path d="M27.2916 75.6993C26.0766 75.6993 25.5732 74.9645 25.5732 73.9492C25.5732 72.8528 26.1431 72.0312 27.4217 72.0312C27.711 72.0312 28.0176 72.0689 28.2867 72.1441L28.2028 72.5896C27.9395 72.5057 27.6503 72.4536 27.3639 72.4536C26.5018 72.4536 26.1344 73.0813 26.1344 73.8682C26.1344 74.7534 26.5365 75.2625 27.4159 75.2625C27.6879 75.2625 28.0176 75.1873 28.2433 75.0831L28.3272 75.5084C28.0408 75.6183 27.6705 75.6993 27.2916 75.6993Z" fill="black"></path><path d="M28.7432 72.0586V72.4665H29.828V75.6514H30.3429V72.4665H31.4363V72.0586H28.7432Z" fill="black"></path><path d="M34.8443 75.6993C33.6293 75.6993 33.126 74.9645 33.126 73.9492C33.126 72.8528 33.6959 72.0312 34.9745 72.0312C35.2637 72.0312 35.5704 72.0689 35.8394 72.1441L35.7555 72.5896C35.4923 72.5057 35.203 72.4536 34.9166 72.4536C34.0546 72.4536 33.6872 73.0813 33.6872 73.8682C33.6872 74.7534 34.0893 75.2625 34.9687 75.2625C35.2406 75.2625 35.5704 75.1873 35.796 75.0831L35.8799 75.5084C35.5935 75.6183 35.2232 75.6993 34.8443 75.6993Z" fill="black"></path><path d="M36.6768 72.0586V75.6514H38.6178V75.2407H37.1917V73.9968H38.5513V73.6033H37.1917V72.4607H38.6178V72.0586H36.6768Z" fill="black"></path><path d="M40.3963 72.4422C40.269 72.4422 40.1562 72.4451 40.055 72.4509V73.6774C40.1128 73.6803 40.2227 73.6861 40.3732 73.6861C40.917 73.6861 41.2294 73.4257 41.2294 73.0439C41.2294 72.6128 40.9459 72.4422 40.3963 72.4422ZM41.3596 75.6561L40.1244 74.0477H40.055V75.6561H39.54V72.0632C39.7975 72.0488 40.0723 72.043 40.486 72.043C41.2294 72.043 41.7675 72.2917 41.7675 72.9773C41.7675 73.5906 41.2584 73.9464 40.6595 73.9898C40.7724 74.1171 40.891 74.2559 40.9835 74.3746L42.0134 75.6561H41.3596Z" fill="black"></path><path d="M42.3252 72.0586V72.4665H43.41V75.6514H43.922V72.4665H45.0184V72.0586H42.3252Z" fill="black"></path><path d="M46.1605 72.0586H45.6484V75.6514H46.1605V72.0586Z" fill="black"></path><path d="M47.1748 72.0586V75.6514H47.6897V74.0228H49.0262V73.6294H47.6897V72.4607H49.0985V72.0586H47.1748Z" fill="black"></path><path d="M50.3743 72.0586H49.8623V75.6514H50.3743V72.0586Z" fill="black"></path><path d="M51.3955 72.0586V75.6514H53.3366V75.2407H51.9075V73.9968H53.2671V73.6033H51.9075V72.4607H53.3366V72.0586H51.3955Z" fill="black"></path><path d="M55.3407 72.4461C55.144 72.4461 54.9155 72.4576 54.7737 72.4634V75.2289C54.9155 75.2521 55.1208 75.2608 55.2742 75.2608C56.1565 75.2608 56.7755 74.8268 56.7755 73.852C56.7755 72.935 56.3185 72.4461 55.3407 72.4461ZM55.2163 75.6773C54.8373 75.6773 54.5394 75.6542 54.2588 75.6542V72.0671C54.551 72.0613 54.9762 72.0469 55.3899 72.0469C56.5991 72.0469 57.3194 72.5849 57.3194 73.8201C57.3194 75.0496 56.4515 75.6773 55.2163 75.6773Z" fill="black"></path><path d="M59.3945 72.0586V75.6514H59.9094V74.0228H61.2459V73.6294H59.9094V72.4607H61.3182V72.0586H59.3945Z" fill="black"></path><path d="M63.5823 72.4388C62.9256 72.4388 62.3876 72.9393 62.3876 73.8303C62.3876 74.6923 62.7752 75.2709 63.5765 75.2709C64.2303 75.2709 64.7654 74.7762 64.7654 73.8881C64.7654 73.0261 64.3749 72.4388 63.5823 72.4388ZM63.5244 75.7077C62.3876 75.7077 61.8408 74.9903 61.8408 73.9026C61.8408 72.7021 62.645 72.0078 63.6315 72.0078C64.7654 72.0078 65.315 72.7281 65.315 73.8129C65.315 75.0163 64.5051 75.7077 63.5244 75.7077Z" fill="black"></path><path d="M66.9471 72.4422C66.8198 72.4422 66.707 72.4451 66.6057 72.4509V73.6774C66.6636 73.6803 66.7735 73.6861 66.9239 73.6861C67.4678 73.6861 67.7802 73.4257 67.7802 73.0439C67.7802 72.6128 67.4967 72.4422 66.9471 72.4422ZM67.9104 75.6561L66.6752 74.0477H66.6057V75.6561H66.0908V72.0632C66.3483 72.0488 66.6231 72.043 67.0368 72.043C67.7802 72.043 68.3183 72.2917 68.3183 72.9773C68.3183 73.5906 67.8091 73.9464 67.2103 73.9898C67.3231 74.1171 67.4417 74.2559 67.5343 74.3746L68.5641 75.6561H67.9104Z" fill="black"></path><path d="M7.81055 78.4531V82.046H9.67639V81.6236H8.32257V78.4531H7.81055Z" fill="black"></path><path d="M11.7571 78.8305C11.1033 78.8305 10.5653 79.3309 10.5653 80.2219C10.5653 81.084 10.9529 81.6625 11.7513 81.6625C12.408 81.6625 12.9432 81.1678 12.9432 80.2798C12.9432 79.4177 12.5526 78.8305 11.7571 78.8305ZM11.7022 82.0993C10.5653 82.0993 10.0186 81.379 10.0186 80.2942C10.0186 79.0908 10.8256 78.4023 11.8092 78.4023C12.9432 78.4023 13.4928 79.1198 13.4928 80.2045C13.4928 81.4079 12.6799 82.0993 11.7022 82.0993Z" fill="black"></path><path d="M17.9281 82.046H17.2946L16.5743 79.6305C16.5194 79.4222 16.4673 79.2081 16.4355 79.0056H16.4297C16.4008 79.2139 16.3516 79.4164 16.2937 79.6305L15.5908 82.046H14.9746L13.9795 78.4531H14.5262L15.1655 80.7963C15.2321 81.0335 15.2755 81.2533 15.316 81.4877H15.3217C15.3593 81.2591 15.4114 81.0335 15.4722 80.8223L16.1722 78.4531H16.7537L17.474 80.8368C17.5318 81.0306 17.5868 81.2591 17.6273 81.4761H17.6302C17.6707 81.262 17.7083 81.0827 17.7604 80.8888L18.4141 78.4531H18.9233L17.9281 82.046Z" fill="black"></path><path d="M22.4371 82.086C21.2221 82.086 20.7188 81.3513 20.7188 80.3359C20.7188 79.2395 21.2886 78.418 22.5672 78.418C22.8565 78.418 23.1632 78.4556 23.4322 78.5308L23.3483 78.9763C23.085 78.8924 22.7958 78.8403 22.5094 78.8403C21.6473 78.8403 21.2799 79.468 21.2799 80.2549C21.2799 81.1372 21.682 81.6492 22.5615 81.6492C22.8334 81.6492 23.1632 81.574 23.3888 81.4699L23.4727 81.8951C23.1863 82.005 22.816 82.086 22.4371 82.086Z" fill="black"></path><path d="M26.7013 82.046V80.3913H24.7776V82.046H24.2627V78.4531H24.7776V79.9747H26.7013V78.4531H27.2162V82.046H26.7013Z" fill="black"></path><path d="M28.2354 78.4531V82.046H30.1764V81.6352H28.7503V80.3913H30.1099V79.9979H28.7503V78.8552H30.1764V78.4531H28.2354Z" fill="black"></path><path d="M34.7891 82.046L34.4709 79.966C34.4131 79.5755 34.3755 79.2689 34.3523 79.0548H34.3407C34.2973 79.2313 34.2366 79.4714 34.1469 79.7317L33.3398 82.046H32.7931L32.0265 79.8793C31.9253 79.5929 31.8414 79.3065 31.7864 79.0548H31.7748C31.7575 79.3528 31.7257 79.6565 31.6736 80.0066L31.4161 82.046H30.8896L31.4451 78.4531H32.0699L32.8712 80.7211C32.9377 80.9004 33.0216 81.1897 33.0882 81.4327H33.0939C33.1605 81.1839 33.2299 80.9612 33.3022 80.7529L34.118 78.4531H34.7573L35.3272 82.046H34.7891V82.046Z" fill="black"></path><path d="M36.6516 78.4531H36.1338V82.046H36.6516V78.4531Z" fill="black"></path><path d="M39.1617 82.086C37.9467 82.086 37.4434 81.3513 37.4434 80.3359C37.4434 79.2395 38.0132 78.418 39.289 78.418C39.5811 78.418 39.8878 78.4556 40.1568 78.5308L40.0729 78.9763C39.8097 78.8924 39.5204 78.8403 39.234 78.8403C38.3719 78.8403 38.0046 79.468 38.0046 80.2549C38.0046 81.1372 38.4067 81.6492 39.2861 81.6492C39.558 81.6492 39.8878 81.574 40.1134 81.4699L40.1973 81.8951C39.9109 82.005 39.5406 82.086 39.1617 82.086Z" fill="black"></path><path d="M42.3735 79.4714C42.3069 79.2949 42.2577 79.1329 42.2115 78.9796H42.1999C42.1565 79.1329 42.1073 79.2949 42.0437 79.4598L41.5345 80.8165H42.8768L42.3735 79.4714ZM43.3252 82.046L43.0128 81.2042H41.4073L41.092 82.046H40.5684L41.9395 78.4531H42.521L43.9008 82.046H43.3252Z" fill="black"></path><path d="M44.4961 78.4531V82.046H46.3619V81.6236H45.0081V78.4531H44.4961Z" fill="black"></path><path d="M48.2227 78.4531V82.046H50.1637V81.6352H48.7347V80.3913H50.0943V79.9979H48.7347V78.8552H50.1637V78.4531H48.2227Z" fill="black"></path><path d="M54.7852 82.046L54.467 79.966C54.4091 79.5755 54.3715 79.2689 54.3484 79.0548H54.3368C54.2934 79.2313 54.2327 79.4714 54.1401 79.7317L53.3359 82.046H52.7892L52.0226 79.8793C51.9214 79.5929 51.8375 79.3065 51.7796 79.0548H51.7709C51.7536 79.3528 51.7189 79.6565 51.6697 80.0066L51.4122 82.046H50.8857L51.4383 78.4531H52.066L52.8673 80.7211C52.9338 80.9004 53.0177 81.1897 53.0843 81.4327H53.09C53.1566 81.1839 53.2231 80.9612 53.2983 80.7529L54.1141 78.4531H54.7505L55.3204 82.046H54.7852V82.046Z" fill="black"></path><path d="M56.64 78.4531H56.1279V82.046H56.64V78.4531Z" fill="black"></path><path d="M58.3249 82.0906C58.0183 82.0906 57.7319 82.053 57.4976 81.9894L57.5583 81.5208C57.7985 81.6104 58.0733 81.6654 58.3539 81.6654C58.7878 81.6654 59.1696 81.4947 59.1696 81.0521C59.1696 80.2422 57.4629 80.5633 57.4629 79.4177C57.4629 78.8276 57.9344 78.4023 58.7849 78.4023C59.0018 78.4023 59.2535 78.4226 59.4647 78.4718L59.4039 78.9028C59.2043 78.8449 58.9729 78.8073 58.756 78.8073C58.2411 78.8073 57.9952 79.0301 57.9952 79.3656C57.9952 80.138 59.7222 79.8603 59.7222 80.9885C59.7222 81.6336 59.1696 82.0906 58.3249 82.0906Z" fill="black"></path><path d="M61.2058 82.0906C60.8992 82.0906 60.6128 82.053 60.3785 81.9894L60.4392 81.5208C60.6793 81.6104 60.9541 81.6654 61.2347 81.6654C61.6715 81.6654 62.0505 81.4947 62.0505 81.0521C62.0505 80.2422 60.3438 80.5633 60.3438 79.4177C60.3438 78.8276 60.8153 78.4023 61.6658 78.4023C61.8827 78.4023 62.1344 78.4226 62.3456 78.4718L62.2848 78.9028C62.0823 78.8449 61.8538 78.8073 61.6368 78.8073C61.1219 78.8073 60.876 79.0301 60.876 79.3656C60.876 80.138 62.603 79.8603 62.603 80.9885C62.603 81.6336 62.0505 82.0906 61.2058 82.0906Z" fill="black"></path><path d="M63.9241 78.4531H63.4121V82.046H63.9241V78.4531Z" fill="black"></path><path d="M66.4388 78.8305C65.7821 78.8305 65.244 79.3309 65.244 80.2219C65.244 81.084 65.6317 81.6625 66.433 81.6625C67.0867 81.6625 67.6219 81.1678 67.6219 80.2798C67.6219 79.4177 67.2314 78.8305 66.4388 78.8305ZM66.3838 82.0993C65.2469 82.0993 64.7002 81.379 64.7002 80.2942C64.7002 79.0908 65.5044 78.4023 66.4908 78.4023C67.6248 78.4023 68.1744 79.1198 68.1744 80.2045C68.1744 81.4079 67.3616 82.0993 66.3838 82.0993Z" fill="black"></path><path d="M71.2673 82.046L69.8006 79.7404C69.6386 79.4858 69.5114 79.2631 69.4043 79.0346C69.4275 79.4106 69.4419 80.4318 69.4419 81.0451V82.046H68.9473V78.4531H69.6271L71.0764 80.7153C71.221 80.9496 71.3685 81.2042 71.49 81.4443C71.4727 80.9988 71.4524 79.9921 71.4524 79.3672V78.4531H71.95V82.046H71.2673Z" fill="black"></path><path d="M73.6355 82.0906C73.3289 82.0906 73.0425 82.053 72.8082 81.9894L72.8689 81.5208C73.109 81.6104 73.3838 81.6654 73.6644 81.6654C74.0983 81.6654 74.4802 81.4947 74.4802 81.0521C74.4802 80.2422 72.7734 80.5633 72.7734 79.4177C72.7734 78.8276 73.245 78.4023 74.0954 78.4023C74.3124 78.4023 74.5641 78.4226 74.7752 78.4718L74.7145 78.9028C74.512 78.8449 74.2835 78.8073 74.0665 78.8073C73.5516 78.8073 73.3057 79.0301 73.3057 79.3656C73.3057 80.138 75.0327 79.8603 75.0327 80.9885C75.0327 81.6336 74.4802 82.0906 73.6355 82.0906Z" fill="black"></path><path d="M9.22512 88.4887C8.04486 88.4887 7.81055 87.8667 7.81055 87.2274V84.8438H8.32546V87.1898C8.32546 87.6845 8.49903 88.0866 9.25983 88.0866C9.91939 88.0866 10.226 87.8233 10.226 87.1001V84.8438H10.7294V87.0625C10.7294 88.0056 10.2116 88.4887 9.22512 88.4887Z" fill="black"></path><path d="M11.7539 84.8438V88.4366H13.6226V88.0142H12.2688V84.8438H11.7539Z" fill="black"></path><path d="M14.3628 88.4799C14.1718 88.4799 14.0156 88.3323 14.0156 88.1501C14.0156 87.9678 14.1718 87.8203 14.3628 87.8203C14.5595 87.8203 14.7099 87.9678 14.7099 88.1501C14.7099 88.3323 14.5595 88.4799 14.3628 88.4799Z" fill="black"></path><path d="M17.0367 88.4766C15.8217 88.4766 15.3184 87.7419 15.3184 86.7265C15.3184 85.6301 15.8882 84.8086 17.1668 84.8086C17.4561 84.8086 17.7628 84.8462 18.0318 84.9214L17.9479 85.3669C17.6847 85.283 17.3954 85.2309 17.109 85.2309C16.2469 85.2309 15.8796 85.8587 15.8796 86.6455C15.8796 87.5278 16.2817 88.0398 17.1611 88.0398C17.433 88.0398 17.7628 87.9646 17.9884 87.8605L18.0723 88.2857C17.7859 88.3956 17.4127 88.4766 17.0367 88.4766Z" fill="black"></path><path d="M20.3577 85.2201C19.7039 85.2201 19.1688 85.7205 19.1688 86.6115C19.1688 87.4736 19.5535 88.0521 20.3548 88.0521C21.0086 88.0521 21.5437 87.5575 21.5437 86.6694C21.5437 85.8073 21.1532 85.2201 20.3577 85.2201ZM20.3027 88.4889C19.1688 88.4889 18.6191 87.7686 18.6191 86.6838C18.6191 85.4804 19.4233 84.7891 20.4098 84.7891C21.5437 84.7891 22.0934 85.5094 22.0934 86.5942C22.0934 87.7976 21.2805 88.4889 20.3027 88.4889Z" fill="black"></path><path d="M26.5596 88.4366L26.2414 86.3567C26.1836 85.9662 26.146 85.6595 26.1228 85.4454H26.1112C26.0679 85.6219 26.0071 85.862 25.9174 86.1224L25.1103 88.4366H24.5636L23.797 86.2699C23.6958 85.9835 23.6119 85.6971 23.554 85.4454H23.5453C23.528 85.7434 23.4962 86.0471 23.4441 86.3972L23.1866 88.4366H22.6602L23.2156 84.8438H23.8404L24.6417 87.1117C24.7082 87.291 24.7921 87.5803 24.8587 87.8233H24.8645C24.931 87.5745 24.9975 87.3518 25.0727 87.1435L25.8885 84.8438H26.5278L27.0977 88.4366H26.5596V88.4366Z" fill="black"></path><path d="M29.4056 84.4102L27.4443 89.2961H27.9274L29.8858 84.4102H29.4056Z" fill="black"></path><path d="M32.0581 88.4813C30.8779 88.4813 30.1836 87.8217 30.1836 86.7254C30.1836 85.6001 30.8779 84.793 32.2143 84.793C32.5846 84.793 32.9375 84.8508 33.2615 84.9463L33.1487 85.3889C32.8421 85.279 32.5065 85.2124 32.1652 85.2124C31.1469 85.2124 30.7332 85.8951 30.7332 86.6501C30.7332 87.544 31.251 88.056 32.1304 88.056C32.3821 88.056 32.5962 88.0184 32.7958 87.9606V86.6038H33.3049V88.273C32.9317 88.4061 32.4718 88.4813 32.0581 88.4813Z" fill="black"></path><path d="M35.9409 88.4813C34.7607 88.4813 34.0664 87.8217 34.0664 86.7254C34.0664 85.6001 34.7607 84.793 36.0971 84.793C36.4674 84.793 36.8174 84.8508 37.1443 84.9463L37.0315 85.3889C36.7249 85.279 36.3893 85.2124 36.048 85.2124C35.0297 85.2124 34.616 85.8951 34.616 86.6501C34.616 87.544 35.1338 88.056 36.0133 88.056C36.2649 88.056 36.4761 88.0184 36.6786 87.9606V86.6038H37.1877V88.273C36.8146 88.4061 36.3546 88.4813 35.9409 88.4813Z" fill="black"></path><path d="M5.18457 66.7852H80.1134" stroke="black" stroke-width="0.783944" stroke-miterlimit="10"></path><path d="M11.8082 59.4172C9.2452 59.4172 7.87402 57.9622 7.87402 55.645C7.87402 53.1168 9.38406 51.3984 12.2016 51.3984C13.0087 51.3984 13.7811 51.5344 14.403 51.7311L14.1051 53.1052C13.515 52.8622 12.8351 52.7349 12.1091 52.7349C10.2606 52.7349 9.49977 53.9701 9.49977 55.4483C9.49977 57.0972 10.3647 58.0663 11.9818 58.0663C12.3492 58.0663 12.6732 58.02 12.974 57.9303V55.2169H14.4725V58.9312C13.7001 59.2437 12.7426 59.4172 11.8082 59.4172Z" fill="black"></path><path d="M18.1403 52.6895C17.9205 52.6895 17.7006 52.7011 17.5502 52.7242V54.9748C17.6544 54.9864 17.8626 54.9979 18.0912 54.9979C18.9937 54.9979 19.5462 54.538 19.5462 53.809C19.5462 53.0598 19.0863 52.6895 18.1403 52.6895ZM19.7777 59.3024L17.6775 56.0827H17.5502V59.3024H16.0518V51.5121C16.6621 51.4774 17.3882 51.4688 18.2879 51.4688C20.0091 51.4688 21.117 52.0676 21.117 53.6586C21.117 54.8128 20.2839 55.6459 19.202 55.8282C19.419 56.1175 19.6388 56.4067 19.8239 56.6844L21.6348 59.3024H19.7777Z" fill="black"></path><path d="M22.6641 59.3059V51.5156H26.8991V52.774H24.1654V54.689H26.7602V55.9127H24.1654V58.0128H26.8991V59.3059H22.6641Z" fill="black"></path><path d="M28.3867 59.3059V51.5156H32.6218V52.774H29.8881V54.689H32.4829V55.9127H29.8881V58.0128H32.6218V59.3059H28.3867Z" fill="black"></path><path d="M38.5778 59.2981L36.1652 55.0052C35.8759 54.4411 35.6474 53.9667 35.4738 53.4836C35.5201 54.1634 35.5548 56.0553 35.5548 57.1863V59.2981H34.1113V51.5078H36.0958L38.4505 55.6966C38.7282 56.1826 38.9915 56.7466 39.1997 57.2558C39.1534 56.4718 39.1187 54.5568 39.1187 53.4691V51.5078H40.5622V59.2981H38.5778V59.2981Z" fill="black"></path><path d="M45.7174 59.4133C43.1544 59.4133 41.7832 57.9583 41.7832 55.6411C41.7832 53.1128 43.2932 51.3945 46.1108 51.3945C46.9179 51.3945 47.6903 51.5305 48.3122 51.7272L48.0143 53.1013C47.4241 52.8583 46.7443 52.731 46.0182 52.731C44.1697 52.731 43.4089 53.9662 43.4089 55.4444C43.4089 57.0933 44.2739 58.0624 45.891 58.0624C46.2583 58.0624 46.5823 58.0161 46.8832 57.9264V55.213H48.3845V58.9273C47.6093 59.2398 46.6518 59.4133 45.7174 59.4133Z" fill="black"></path><path d="M52.9772 59.4254C50.5183 59.4254 49.9658 58.086 49.9658 56.5991V51.5078H51.4643V56.5065C51.4643 57.4872 51.7883 58.1786 53.0814 58.1786C54.2356 58.1786 54.7187 57.6955 54.7187 56.3677V51.5078H56.2084V56.2751C56.2084 58.41 55.0311 59.4254 52.9772 59.4254Z" fill="black"></path><path d="M60.5156 54.1981C60.3883 53.8163 60.2841 53.4691 60.2031 53.1249H60.1916C60.099 53.4691 60.0064 53.8163 59.8907 54.1981L59.0952 56.5181H61.3111L60.5156 54.1981ZM62.2223 59.2981L61.69 57.7042H58.7365L58.1955 59.2981H56.6826L59.3729 51.5078H61.1375L63.8828 59.2981H62.2223Z" fill="black"></path><path d="M66.7888 52.6856C66.5689 52.6856 66.3491 52.6972 66.1987 52.7203V54.9709C66.3028 54.9825 66.5111 54.994 66.7396 54.994C67.6422 54.994 68.1947 54.5341 68.1947 53.8051C68.1947 53.0559 67.7347 52.6856 66.7888 52.6856ZM68.4261 59.2985L66.3259 56.0788H66.1987V59.2985H64.7002V51.5082C65.3106 51.4735 66.0367 51.4648 66.9363 51.4648C68.6575 51.4648 69.7655 52.0636 69.7655 53.6547C69.7655 54.8089 68.9323 55.642 67.8504 55.8243C68.0674 56.1135 68.2872 56.4028 68.4724 56.6805L70.2833 59.2985H68.4261Z" fill="black"></path><path d="M73.7212 52.7193C73.374 52.7193 73.0501 52.7309 72.81 52.754V58.0044C73.0153 58.0391 73.3278 58.0623 73.6286 58.0623C75.0952 58.0623 76.154 57.232 76.154 55.3864C76.154 53.7115 75.4973 52.7193 73.7212 52.7193ZM73.4782 59.3438C72.6711 59.3438 71.9653 59.3091 71.3086 59.2859V51.5188C71.9219 51.4957 72.8649 51.4609 73.8253 51.4609C76.2379 51.4609 77.7711 52.5342 77.7711 55.2707C77.7711 57.935 76.018 59.3438 73.4782 59.3438Z" fill="black"></path></g><defs><clipPath id="clip0"><rect width="85.4817" height="114.693" fill="white"></rect></clipPath></defs></svg> 