<?xml version="1.0" encoding="UTF-8"?> <svg xmlns="http://www.w3.org/2000/svg" width="87" height="87" viewBox="0 0 87 87" fill="none"><g clip-path="url(#clip0)"><path d="M21.9364 0.726562C21.9364 0.726562 0.756836 0.726562 0.756836 22.0464V64.8885C0.756836 64.8885 0.756836 86.2083 21.9364 86.2083H64.4967C64.4967 86.2083 85.6762 86.2083 85.6762 64.8885V22.0464C85.6762 22.0464 85.6762 0.726562 64.4967 0.726562H21.9364V0.726562Z" stroke="black" stroke-width="1.44639"></path><path d="M66.1206 44.2265L62.3876 37.7148L52.5479 43.431L57.3987 51.8953C59.7466 51.9907 61.5686 51.9387 63.3417 51.6523C64.6866 51.4382 65.6119 50.5386 66.1953 49.61C66.2039 49.5984 66.2068 49.5868 66.2125 49.5753C66.224 49.555 66.2384 49.5348 66.2499 49.5116C67.3448 47.4577 66.9741 45.7134 66.1206 44.2265Z" stroke="black" stroke-width="1.44639" stroke-miterlimit="10" stroke-linecap="round" stroke-linejoin="round"></path><path d="M57.2162 36.3402L61.5757 23.6206L57.949 25.7266L55.5724 21.587C54.0781 19.5794 53.2935 18.9141 51.6928 18.9141H38.5713C40.5973 18.9141 42.0859 20.9448 43.0773 22.6718L48.1064 31.4485L44.0918 33.7801L57.2162 36.3402Z" stroke="black" stroke-width="1.44639" stroke-miterlimit="10" stroke-linecap="round" stroke-linejoin="round"></path><path d="M37.5805 22.2791C36.7212 21.2146 35.4855 20.8559 34.3935 20.8125C34.3791 20.8125 34.3676 20.8125 34.3562 20.8125C34.3303 20.8125 34.3073 20.8125 34.2814 20.8125C31.9681 20.8848 30.6519 22.0824 29.7984 23.5693L26.0625 30.081L35.9022 35.8L40.756 27.3357C39.6668 25.2414 38.7099 23.6792 37.5805 22.2791Z" stroke="black" stroke-width="1.44639" stroke-miterlimit="10" stroke-linecap="round" stroke-linejoin="round"></path><path d="M15.2842 38.9185L18.9109 41.0244L16.5371 45.1669C15.6894 46.648 15.379 48.4907 16.1779 49.885L18.4166 53.7874L20.8133 57.9646L22.7387 61.3231C21.7271 59.5585 22.7272 57.2443 23.7186 55.5173L28.7535 46.7435L32.7681 49.0779L28.4086 36.3555L15.2842 38.9185Z" stroke="black" stroke-width="1.44639" stroke-miterlimit="10" stroke-linecap="round" stroke-linejoin="round"></path><path d="M25.868 60.9754C25.3824 62.2569 25.6927 63.5123 26.2014 64.4872C26.2071 64.4988 26.2129 64.5074 26.2186 64.519C26.2301 64.5393 26.2416 64.5624 26.2531 64.5827C27.4745 66.5642 29.1614 67.1167 30.8684 67.1167H38.3372V55.6758L28.6297 55.6787C27.3739 57.6776 26.5089 59.2889 25.868 60.9754Z" stroke="black" stroke-width="1.44639" stroke-miterlimit="10" stroke-linecap="round" stroke-linejoin="round"></path><path d="M51.7962 51.0117L43.0312 61.1741L51.7962 71.3335V67.1216L56.5465 67.1187C58.2478 67.1187 59.9864 66.465 60.7853 65.0707L63.0239 61.1712V61.1683L64.6419 58.3478L65.4207 56.9882L67.3461 53.6326C66.3345 55.3972 63.843 55.6807 61.8601 55.6807L51.7962 55.6778V51.0117V51.0117Z" stroke="black" stroke-width="1.44639" stroke-miterlimit="10" stroke-linecap="round" stroke-linejoin="round"></path><path d="M21.9003 0.722656C21.9003 0.722656 0.720703 0.722656 0.720703 22.0425V64.8846C0.720703 64.8846 0.720703 86.2044 21.9003 86.2044H64.4605C64.4605 86.2044 85.6401 86.2044 85.6401 64.8846V22.0425C85.6401 22.0425 85.6401 0.722656 64.4605 0.722656H21.9003Z" stroke="black" stroke-width="1.44639"></path></g><defs><clipPath id="clip0"><rect width="86.3562" height="86.9281" fill="white"></rect></clipPath></defs></svg> 